<svg width="24" height="22" viewBox="0 0 24 22" fill="none" xmlns="http://www.w3.org/2000/svg">
<path d="M0.0888672 12.6797H23.7178V9.04102H0.0888672V12.6797ZM11.8809 4.70605C12.5397 4.70605 13.0863 4.48893 13.5205 4.05469C13.9697 3.60547 14.1943 3.05892 14.1943 2.41504C14.1943 1.75618 13.9697 1.20964 13.5205 0.775391C13.0863 0.326172 12.5397 0.101562 11.8809 0.101562C11.237 0.101562 10.6904 0.326172 10.2412 0.775391C9.80697 1.20964 9.58984 1.75618 9.58984 2.41504C9.58984 3.05892 9.80697 3.60547 10.2412 4.05469C10.6904 4.48893 11.237 4.70605 11.8809 4.70605ZM11.8809 21.6191C12.5397 21.6191 13.0863 21.3945 13.5205 20.9453C13.9697 20.4961 14.1943 19.9495 14.1943 19.3057C14.1943 18.6618 13.9697 18.1227 13.5205 17.6885C13.0863 17.2393 12.5397 17.0146 11.8809 17.0146C11.237 17.0146 10.6904 17.2393 10.2412 17.6885C9.80697 18.1227 9.58984 18.6618 9.58984 19.3057C9.58984 19.9495 9.80697 20.4961 10.2412 20.9453C10.6904 21.3945 11.237 21.6191 11.8809 21.6191Z" fill="white"/>
<path d="M0.0888672 12.6797H-0.311133V13.0797H0.0888672V12.6797ZM23.7178 12.6797V13.0797H24.1178V12.6797H23.7178ZM23.7178 9.04102H24.1178V8.64102H23.7178V9.04102ZM0.0888672 9.04102V8.64102H-0.311133V9.04102H0.0888672ZM13.5205 0.775391L13.2327 1.05356L13.2425 1.06299L13.5205 0.775391ZM10.2412 4.05469L9.95345 4.33286L9.9632 4.34228L10.2412 4.05469ZM13.5205 20.9453L13.2376 20.6624L13.2329 20.6673L13.5205 20.9453ZM13.5205 17.6885L13.2327 17.9666L13.2425 17.9761L13.5205 17.6885ZM10.2412 17.6885L10.5241 17.9713L10.2412 17.6885ZM10.2412 20.9453L9.95357 21.2234L9.95837 21.2282L10.2412 20.9453ZM0.0888672 13.0797H23.7178V12.2797H0.0888672V13.0797ZM24.1178 12.6797V9.04102H23.3178V12.6797H24.1178ZM23.7178 8.64102H0.0888672V9.44102H23.7178V8.64102ZM-0.311133 9.04102V12.6797H0.488867V9.04102H-0.311133ZM11.8809 5.10605C12.6372 5.10605 13.2883 4.85263 13.8034 4.33753L13.2377 3.77184C12.8843 4.12524 12.4422 4.30606 11.8809 4.30606V5.10605ZM13.8034 4.33753C14.3287 3.81217 14.5943 3.16339 14.5943 2.41504H13.7943C13.7943 2.95444 13.6107 3.39877 13.2377 3.77184L13.8034 4.33753ZM14.5943 2.41504C14.5943 1.65435 14.3303 1.00188 13.7985 0.487795L13.2425 1.06299C13.6091 1.41739 13.7943 1.85802 13.7943 2.41504H14.5943ZM13.8081 0.497381C13.294 -0.0344276 12.6415 -0.298437 11.8809 -0.298437V0.501562C12.4379 0.501562 12.8785 0.686771 13.2329 1.0534L13.8081 0.497381ZM11.8809 -0.298437C11.1325 -0.298437 10.4837 -0.0328159 9.95837 0.492548L10.5241 1.05823C10.8971 0.68516 11.3415 0.501562 11.8809 0.501562V-0.298437ZM9.95837 0.492548C9.44327 1.00764 9.18984 1.65865 9.18984 2.41504H9.98984C9.98984 1.85372 10.1707 1.41163 10.5241 1.05823L9.95837 0.492548ZM9.18984 2.41504C9.18984 3.15913 9.44486 3.80639 9.95362 4.3327L10.5288 3.77668C10.1691 3.40454 9.98984 2.95871 9.98984 2.41504H9.18984ZM9.9632 4.34228C10.4895 4.85104 11.1368 5.10605 11.8809 5.10605V4.30606C11.3372 4.30606 10.8914 4.12682 10.5192 3.76709L9.9632 4.34228ZM11.8809 22.0191C12.6415 22.0191 13.294 21.7551 13.8081 21.2233L13.2329 20.6673C12.8785 21.0339 12.4379 21.2191 11.8809 21.2191V22.0191ZM13.8034 21.2282C14.3287 20.7028 14.5943 20.054 14.5943 19.3057H13.7943C13.7943 19.8451 13.6107 20.2894 13.2377 20.6625L13.8034 21.2282ZM14.5943 19.3057C14.5943 18.5571 14.3283 17.913 13.7985 17.4009L13.2425 17.9761C13.6111 18.3324 13.7943 18.7665 13.7943 19.3057H14.5943ZM13.8081 17.4105C13.294 16.8787 12.6415 16.6146 11.8809 16.6146V17.4146C12.4379 17.4146 12.8785 17.5999 13.2329 17.9665L13.8081 17.4105ZM11.8809 16.6146C11.1325 16.6146 10.4837 16.8803 9.95837 17.4056L10.5241 17.9713C10.8971 17.5982 11.3415 17.4146 11.8809 17.4146V16.6146ZM9.95837 17.4056C9.44516 17.9188 9.18984 18.5614 9.18984 19.3057H9.98984C9.98984 18.7621 10.1688 18.3266 10.5241 17.9713L9.95837 17.4056ZM9.18984 19.3057C9.18984 20.0498 9.44486 20.697 9.95362 21.2233L10.5288 20.6673C10.1691 20.2952 9.98984 19.8493 9.98984 19.3057H9.18984ZM9.95837 21.2282C10.4837 21.7535 11.1325 22.0191 11.8809 22.0191V21.2191C11.3415 21.2191 10.8971 21.0355 10.5241 20.6625L9.95837 21.2282Z" fill="white"/>
</svg>
